<svg width="14" height="14" viewBox="0 0 14 14" fill="none" xmlns="http://www.w3.org/2000/svg">
<g clip-path="url(#clip0_581_2)">
<g clip-path="url(#clip1_581_2)">
<path d="M5.19843 4.94897L9.0374 4.95893L9.04741 8.7979C9.05281 8.83794 9.04956 8.87863 9.03786 8.91724C9.02622 8.95585 9.00633 8.99154 8.97968 9.02183C8.95303 9.05218 8.92014 9.07636 8.88335 9.09287C8.8465 9.10938 8.80652 9.11777 8.76615 9.11744C8.72579 9.11718 8.68601 9.10821 8.64942 9.09118C8.61282 9.07415 8.58026 9.04952 8.55406 9.01884C8.5278 8.98816 8.5085 8.95221 8.49738 8.91341C8.48627 8.8746 8.4836 8.83385 8.48958 8.79394L8.47762 5.91719L4.66651 9.72831C4.61367 9.78109 4.54201 9.8108 4.46729 9.8108C4.39257 9.8108 4.3209 9.78109 4.26806 9.72831C4.21523 9.67547 4.18555 9.60377 4.18555 9.52909C4.18555 9.45434 4.21523 9.38271 4.26806 9.32986L8.07917 5.51875L5.20241 5.50679C5.12765 5.50653 5.05605 5.47657 5.00337 5.42352C4.95069 5.37047 4.92125 5.29866 4.92151 5.2239C4.92178 5.14914 4.95173 5.07754 5.00478 5.02486C5.05783 4.97218 5.12964 4.94273 5.2044 4.94299L5.19843 4.94897Z" fill="white"/>
<path d="M6.63208 12.2239C9.25341 12.2239 11.3784 10.0989 11.3784 7.47754C11.3784 4.85621 9.25341 2.7312 6.63208 2.7312C4.01075 2.7312 1.88574 4.85621 1.88574 7.47754C1.88574 10.0989 4.01075 12.2239 6.63208 12.2239Z" stroke="white" stroke-width="0.65"/>
</g>
</g>
<defs>
<clipPath id="clip0_581_2">
<rect width="13" height="13" fill="white" transform="translate(0.146484 0.850098)"/>
</clipPath>
<clipPath id="clip1_581_2">
<rect width="13" height="13" fill="white" transform="translate(0.146484 0.850098)"/>
</clipPath>
</defs>
</svg>
