<svg width="38" height="39" viewBox="0 0 38 39" fill="none" xmlns="http://www.w3.org/2000/svg">
<path d="M2 2H4.91667L6.16667 7.87028M6.16667 7.87028L10.3333 27.4379H32L36.1667 7.87028H6.16667Z" stroke="white" stroke-width="3.33333" stroke-linecap="round" stroke-linejoin="round"/>
<path d="M10.3333 37.2218C11.714 37.2218 12.8333 35.9077 12.8333 34.2867C12.8333 32.6657 11.714 31.3516 10.3333 31.3516C8.95262 31.3516 7.83333 32.6657 7.83333 34.2867C7.83333 35.9077 8.95262 37.2218 10.3333 37.2218Z" stroke="white" stroke-width="3.33333" stroke-linecap="round" stroke-linejoin="round"/>
<path d="M32 37.2218C33.3807 37.2218 34.5 35.9077 34.5 34.2867C34.5 32.6657 33.3807 31.3516 32 31.3516C30.6193 31.3516 29.5 32.6657 29.5 34.2867C29.5 35.9077 30.6193 37.2218 32 37.2218Z" stroke="white" stroke-width="3.33333" stroke-linecap="round" stroke-linejoin="round"/>
</svg>
