<svg width="40" height="31" viewBox="0 0 40 31" fill="none" xmlns="http://www.w3.org/2000/svg">
<path d="M34.4458 15.0577V15.2647L38.9408 10.8922C40.3531 9.51831 40.3531 7.29753 38.9408 5.92366L33.9041 1.03041C32.4917 -0.343469 30.2088 -0.343469 28.7965 1.03041L26.2104 3.54604C26.0363 3.52722 25.8557 3.51467 25.6751 3.51467H18.4522C16.0597 3.51467 14.0927 5.27122 13.8347 7.52965H13.8089V15.0577C13.8089 16.4441 14.9633 17.5671 16.3886 17.5671C17.8138 17.5671 18.9682 16.4441 18.9682 15.0577V9.53713H29.2866C32.137 9.53713 34.4458 11.783 34.4458 14.5559V15.0577ZM21.0318 11.5446V15.0577C21.0318 17.5545 18.9553 19.5746 16.3886 19.5746C13.8218 19.5746 11.7453 17.5545 11.7453 15.0577V7.61747C9.43007 8.00642 7.50181 9.64378 6.84401 11.8959L5.77993 15.5094L1.05925 20.1015C-0.353083 21.4754 -0.353083 23.6962 1.05925 25.0701L6.09593 29.9696C7.50826 31.3435 9.79121 31.3435 11.2035 29.9696L13.6348 27.6045C13.6929 27.6045 13.7509 27.6108 13.8089 27.6108H24.1274C25.8364 27.6108 27.2229 26.262 27.2229 24.5996C27.2229 24.2483 27.1584 23.9095 27.0488 23.5958H27.2229C28.9319 23.5958 30.3184 22.247 30.3184 20.5846C30.3184 19.7816 29.996 19.0539 29.4671 18.5144C31.1245 18.2007 32.3757 16.7829 32.3821 15.0765V15.0515C32.3757 13.1192 30.7634 11.5509 28.7707 11.5509H21.0318V11.5446Z" fill="black"/>
</svg>
