<svg width="40" height="40" viewBox="0 0 40 40" fill="none" xmlns="http://www.w3.org/2000/svg">
  <defs>
      <linearGradient id="maple-gradient" x1="0%" y1="0%" x2="100%" y2="0%">
        <stop offset="0%" stop-color="#6366F1" />
        <stop offset="50%" stop-color="#8B5CF6" />
        <stop offset="100%" stop-color="#7C3AED" />
      </linearGradient>
  </defs>
  <path
    d="M29.9844 27.4766C30.1797 27.2813 38.2031 20.2578 38.2031 20.2578L36.8359 19.6719C36.0547 19.2891 36.2578 18.7734 36.4453 18.3125C36.6328 17.7187 38.0156 13.0547 38.0156 13.0547C38.0156 13.0547 34.2891 13.8359 33.5078 14.0313C32.9219 14.2188 32.7266 13.8359 32.5312 13.4453C32.3359 13.0547 31.3594 10.9141 31.3594 10.9141C31.3594 10.9141 27.25 15.5937 27.0547 15.7812C26.2734 16.3672 25.4844 15.7812 25.6797 15C25.6797 14.2188 27.8359 4.875 27.8359 4.875C27.8359 4.875 25.4844 6.23438 24.7031 6.625C24.1172 7.01563 23.7188 7.01563 23.3281 6.23438C22.9297 5.64844 19.9922 0 19.9922 0C19.9922 0 17.0625 5.64844 16.6719 6.23438C16.2812 7.01563 15.8906 7.01563 15.2969 6.625C14.5156 6.23438 12.1641 4.875 12.1641 4.875C12.1641 4.875 14.3203 14.2188 14.3203 15C14.5156 15.7812 13.7344 16.3672 12.9453 15.7812C12.75 15.5859 8.64062 10.9141 8.64062 10.9141C8.64062 10.9141 7.66406 13.0469 7.46875 13.4375C7.27344 13.8281 7.07812 14.2109 6.49219 14.0234C5.70312 13.8281 1.98437 13.0469 1.98437 13.0469C1.98437 13.0469 3.35938 17.7109 3.55469 18.3047C3.74219 18.7734 3.94531 19.2812 3.16406 19.6641L1.79688 20.2578C1.79688 20.2578 9.8125 27.2813 10.0156 27.4766C10.4141 27.8672 10.7969 28.0625 10.4141 29.2344C10.0156 30.4063 9.625 31.9766 9.625 31.9766C9.625 31.9766 17.0625 30.4063 17.8516 30.2109C18.5312 30.1406 19.2813 30.4063 19.2813 31.1875C19.2813 31.9688 18.8281 40 18.8281 40H21.1719C21.1719 40 20.7188 31.9766 20.7188 31.1875C20.7188 30.3984 21.4609 30.1406 22.1563 30.2109C22.9375 30.4063 30.375 31.9766 30.375 31.9766C30.375 31.9766 29.9844 30.4063 29.5937 29.2344C29.2031 28.0625 29.5937 27.8672 29.9844 27.4766Z"
    fill="url(#maple-gradient)"
  />
</svg>
