<svg width="38" height="40" viewBox="0 0 38 40" fill="none" xmlns="http://www.w3.org/2000/svg">
<path d="M2 2.48438H4.91667L6.16667 8.35465M6.16667 8.35465L10.3333 27.9223H32L36.1667 8.35465H6.16667Z" stroke="black" stroke-width="3.33333" stroke-linecap="round" stroke-linejoin="round"/>
<path d="M10.3335 37.7062C11.7142 37.7062 12.8335 36.3921 12.8335 34.7711C12.8335 33.15 11.7142 31.8359 10.3335 31.8359C8.95278 31.8359 7.8335 33.15 7.8335 34.7711C7.8335 36.3921 8.95278 37.7062 10.3335 37.7062Z" stroke="black" stroke-width="3.33333" stroke-linecap="round" stroke-linejoin="round"/>
<path d="M32 37.7062C33.3807 37.7062 34.5 36.3921 34.5 34.7711C34.5 33.15 33.3807 31.8359 32 31.8359C30.6193 31.8359 29.5 33.15 29.5 34.7711C29.5 36.3921 30.6193 37.7062 32 37.7062Z" stroke="black" stroke-width="3.33333" stroke-linecap="round" stroke-linejoin="round"/>
</svg>
