<svg width="32" height="32" viewBox="0 0 32 32" fill="none" xmlns="http://www.w3.org/2000/svg">
<circle cx="16" cy="16" r="16" fill="white"/>
<path d="M16.8961 14.384L16.8641 14.4L16.8321 14.416L16.8001 14.432L16.7681 14.448L16.7361 14.48L16.7201 14.512L16.7041 14.544L16.6721 14.624V14.672V20.08L16.7041 20.112V20.368L16.7361 20.4V20.56L16.7681 20.592V20.688L16.8001 20.72V20.784L16.8321 20.816V20.88L16.8641 20.912V20.976L16.8961 21.008V21.04L16.9281 21.072V21.136L16.9601 21.168V21.2L17.0241 21.264V21.296L17.0561 21.328V21.36L17.1201 21.424V21.456L17.1841 21.52V21.552L17.3121 21.68V21.712L17.5041 21.904H17.5361L17.6961 22.064H17.7281L17.7921 22.128H17.8241L17.8881 22.192H17.9201L17.9841 22.256H18.0161L18.0481 22.288H18.0801L18.1121 22.32H18.1441L18.1761 22.352H18.2081L18.2401 22.384H18.3041L18.3361 22.416H18.3681L18.4001 22.448H18.4641L18.4961 22.48H18.5601L18.5921 22.512H18.6881L18.7201 22.544H18.8161L18.8481 22.576H18.9761L19.0081 22.608H19.2961L19.3281 22.64H19.8081L19.8401 22.608H20.0641L20.0961 22.576H20.2561L20.2881 22.544H20.3841L20.4161 22.512H20.5121L20.5441 22.48H20.6081L20.6401 22.448H20.6721L20.7041 22.416H20.7681L20.8001 22.384H20.8321L20.8641 22.352H20.8961L20.9281 22.32H20.9601L20.9921 22.288H21.0241L21.0561 22.256H21.0881L21.1521 22.192H21.1841L21.2481 22.128H21.2801L21.3761 22.032H21.4081L21.8241 21.616V21.584L21.9201 21.488L21.9841 21.552V22.256L22.0001 22.288L22.0161 22.32L22.0481 22.352L22.0801 22.368L22.1121 22.384L22.1441 22.4L22.1761 22.416H24.0321L24.0641 22.4L24.0961 22.384L24.1281 22.368L24.1601 22.352L24.1921 22.32L24.2241 22.256V15.248L24.0961 15.12L24.0481 15.104L24.0001 15.088H22.0481L22.0001 15.104L21.9521 15.12L21.8241 15.248V19.28L21.8081 19.312L21.7921 19.472L21.7601 19.504V19.568L21.7281 19.6V19.664L21.6961 19.696V19.728L21.6641 19.76V19.792L21.6321 19.824V19.856L21.5681 19.92V19.952L21.5041 20.016V20.048L21.2481 20.304H21.2161L21.1841 20.336H21.1521L21.0881 20.4H21.0561L21.0241 20.432H20.9601L20.9281 20.464H20.8641L20.8321 20.496H20.7041L20.6721 20.528H20.2881L20.2561 20.496H20.0961L20.0641 20.464H19.9361L19.9041 20.432H19.8721L19.8401 20.4H19.7761L19.7441 20.368H19.7121L19.6801 20.336H19.6481L19.5521 20.24H19.5201L19.3281 20.048V20.016L19.2641 19.952V19.92L19.2321 19.888V19.856L19.2001 19.824V19.792L19.1681 19.76V19.696L19.1361 19.664V19.536L19.1041 19.504V14.576L19.0721 14.512L19.0401 14.48L19.0081 14.448L18.9761 14.432L18.9441 14.416L18.9121 14.4L18.8801 14.384H16.8961Z" fill="black"/>
<path d="M6.06407 11.8498L6.03207 11.856L6.00007 11.8818L5.87207 12.0098V22.2178L5.88807 22.2498L5.90407 22.2818L6.00007 22.3778L6.04807 22.3938L6.09607 22.4098H8.14407L8.19207 22.3938L8.20807 22.384L8.25607 22.3618L8.27207 22.3458L8.30407 22.3138L8.32007 22.288L8.33607 22.2498L8.35207 22.224L8.36807 22.1858V15.6898L8.40007 15.6578L8.49607 15.7538V15.7858L8.56007 15.8498V15.8818L8.62407 15.9458V15.9778L8.68807 16.0418V16.0738L8.75207 16.1378V16.1698L8.78407 16.2018V16.2338L8.84807 16.2978V16.3298L8.91207 16.3938V16.4258L8.97607 16.4898V16.5218L9.04007 16.5858V16.6178L9.07207 16.6498V16.6818L9.13607 16.7458V16.7778L9.20007 16.8418V16.8738L9.26407 16.9378V16.9698L9.32807 17.0338V17.0658L9.36007 17.0978V17.1298L9.42407 17.1938V17.2258L9.48807 17.2898V17.3218L9.55207 17.3858V17.4178L9.61607 17.4818V17.5138L9.68007 17.5778V17.6098L9.71207 17.6418V17.6738L9.77607 17.7378V17.7698L9.84007 17.8338V17.8658L9.90407 17.9298V17.9618L9.93607 17.9938V18.0258L10.0001 18.0898V18.1218L10.0641 18.1858V18.2178L10.1281 18.2818V18.3138L10.1921 18.3778V18.4098L10.2561 18.4738V18.5058L10.2881 18.5378V18.5698L10.3521 18.6338V18.6658L10.4161 18.7298V18.7618L10.4801 18.8258V18.8578L10.5441 18.9218V18.9538L10.6081 19.0178V19.0498L10.6401 19.0818V19.1138L10.7041 19.1778V19.2098L10.7681 19.2738V19.3058L10.8321 19.3698V19.4018L10.8961 19.4658V19.4978L10.9281 19.5298V19.5618L10.9921 19.6258V19.6578L11.0561 19.7218V19.7538L11.1201 19.8178V19.8498L11.1521 19.8818V19.9138L11.2161 19.9778V20.0098L11.2801 20.0738V20.1058L11.3441 20.1698V20.2018L11.4081 20.2658V20.2978L11.4401 20.3298V20.3618L11.5041 20.4258V20.4578L11.5681 20.5218V20.5538L11.6321 20.6178V20.6498L11.6961 20.7138V20.7458L11.7601 20.8098V20.8418L11.8241 20.9058V20.9378L11.8561 20.9698V21.0018L11.9201 21.0658V21.0978L11.9841 21.1618V21.1938L12.0481 21.2578V21.2898L12.1121 21.3538V21.3858L12.1441 21.4178V21.4498L12.2081 21.5138V21.5458L12.2721 21.6098V21.6418L12.3041 21.6738V21.7058L12.3681 21.7698V21.8018L12.4321 21.8658V21.8978L12.4961 21.9618V21.9938L12.5601 22.0578V22.0898L12.6241 22.1538V22.1858L12.7521 22.3138H12.7841L12.8161 22.3458H12.8481L12.8801 22.3778H12.9441L12.9761 22.4098H15.3761L15.4081 22.4L15.4401 22.384L15.4721 22.368L15.5041 22.3458L15.5361 22.3138L15.5521 22.288L15.5681 22.2498L15.5841 22.192L15.6001 22.1218V12.1378L15.5841 12.096L15.5681 12.0098L15.5521 11.968L15.5361 11.952L15.5041 11.92L15.4721 11.904L15.4401 11.8818L15.4241 11.872L15.3761 11.8498H13.2961L13.2481 11.872L13.2321 11.8818L13.1841 11.904L13.1681 11.9138L13.1361 11.9458L13.1201 11.968L13.1041 12.0098L13.0881 12.064L13.0721 12.1058V18.4738L13.0401 18.5058L12.9761 18.4418V18.4098L12.9121 18.3458V18.3138L12.8481 18.2498V18.2178L12.7841 18.1538V18.1218L12.7521 18.0898V18.0578L12.6881 17.9938V17.9618L12.6241 17.8978V17.8658L12.5601 17.8018V17.7698L12.4961 17.7058V17.6738L12.4321 17.6098V17.5778L12.4001 17.5458V17.5138L12.3361 17.4498V17.4178L12.2721 17.3538V17.3218L12.2081 17.2578V17.2258L12.1441 17.1618V17.1298L12.0801 17.0658V17.0338L12.0481 17.0018V16.9698L11.9841 16.9058V16.8738L11.9201 16.8098V16.7778L11.8561 16.7138V16.6818L11.7921 16.6178V16.5858L11.7281 16.5218V16.4898L11.6961 16.4578V16.4258L11.6321 16.3618V16.3298L11.5681 16.2658V16.2338L11.5041 16.1698V16.1378L11.4401 16.0738V16.0418L11.3761 15.9778V15.9458L11.3121 15.8818V15.8498L11.2481 15.7858V15.7538L11.1841 15.6898V15.6578L11.1521 15.6258V15.5938L11.0881 15.5298V15.4978L11.0241 15.4338V15.4018L10.9601 15.3378V15.3058L10.8961 15.2418V15.2098L10.8321 15.1458V15.1138L10.8001 15.0818V15.0498L10.7361 14.9858V14.9538L10.6721 14.8898V14.8578L10.6081 14.7938V14.7618L10.5761 14.7298V14.6978L10.5121 14.6338V14.6018L10.4481 14.5378V14.5058L10.3841 14.4418V14.4098L10.3201 14.3458V14.3138L10.2561 14.2498V14.2178L10.1921 14.1538V14.1218L10.1601 14.0898V14.0578L10.0961 13.9938V13.9618L10.0321 13.8978V13.8658L9.96807 13.8018V13.7698L9.90407 13.7058V13.6738L9.84007 13.6098V13.5778L9.80807 13.5458V13.5138L9.74407 13.4498V13.4178L9.68007 13.3538V13.3218L9.61607 13.2578V13.2258L9.55207 13.1618V13.1298L9.48807 13.0658V13.0338L9.42407 12.9698V12.9378L9.39207 12.9058V12.8738L9.32807 12.8098V12.7778L9.26407 12.7138V12.6818L9.20007 12.6178V12.5858L9.16807 12.5538V12.5218L9.10407 12.4578V12.4258L9.04007 12.3618V12.3298L8.97607 12.2658V12.2338L8.91207 12.1698V12.1378L8.84807 12.0738V12.0418L8.75207 11.9458H8.72007L8.68807 11.9138H8.65607L8.62407 11.8818L8.57607 11.872L8.52807 11.8498H6.06407Z" fill="black"/>
<path d="M21.92 6.72L21.872 6.7446L21.856 6.752L21.792 6.816L21.776 6.8406L21.76 6.88V9.216L21.728 9.248H19.392L19.344 9.264L19.296 9.28L19.2 9.376L19.184 9.408L19.168 9.44V11.616L19.2 11.68L19.296 11.744L19.344 11.76L19.392 11.776H19.552H19.584H19.616H19.712H19.744H19.776H20H20.032H20.064H20.096H20.128H20.16H20.896H20.928H20.96H21.664L21.696 11.792L21.728 11.808L21.76 11.84V14.24L21.888 14.368L21.936 14.3926L21.984 14.4H24.128L24.16 14.3926L24.192 14.368L24.288 14.272L24.304 14.2486L24.32 14.208V11.84L24.352 11.808L24.384 11.792L24.416 11.776H24.64H24.672H24.704H24.96H24.992H25.024H26.72L26.848 11.648V9.408L26.72 9.28L26.672 9.264L26.624 9.248H24.352L24.32 9.216V6.912L24.304 6.864L24.288 6.848L24.256 6.816L24.24 6.8L24.224 6.784L24.16 6.72H21.92Z" fill="#005DFF"/>
</svg>
