<svg width="28" height="27" viewBox="0 0 28 27" fill="none" xmlns="https://www.w3.org/2000/svg">
<path d="M27.5 13.5C27.5 20.6627 21.4731 26.5 14 26.5C6.52686 26.5 0.5 20.6627 0.5 13.5C0.5 6.33728 6.52686 0.5 14 0.5C21.4731 0.5 27.5 6.33728 27.5 13.5Z" fill="white" stroke="black"/>
<path d="M5.7 18V10.63H7.74L10.22 15.05V10.63H11.96V18H10.22L7.8 13.68H7.44V18H5.7ZM14.3163 18.01L13.2063 16.9V12.78H15.0763V16.6L15.4263 16.95H15.8363L16.8463 16.09V12.78H18.7163V18H16.8463V17.3L15.9763 18.01H14.3163Z" fill="black"/>
<path d="M19.508 11.224V9.376H17.66V7.792H19.508V5.944H21.092V7.792H22.94V9.376H21.092V11.224H19.508Z" fill="#0067e7"/>
</svg>
