<svg width="75" height="57" viewBox="0 0 75 57" fill="none" xmlns="http://www.w3.org/2000/svg">
<path d="M39.4166 27.4028L39.3022 27.46L39.1878 27.5172L39.0734 27.5744L38.959 27.6317L38.8446 27.7461L38.7873 27.8605L38.7301 27.9749L38.6157 28.2609V28.4326V47.7689L38.7301 47.8834V48.7987L38.8446 48.9131V49.4852L38.959 49.5996V49.9429L39.0734 50.0573V50.2861L39.1878 50.4005V50.6294L39.3022 50.7438V50.9726L39.4166 51.087V51.2014L39.5311 51.3159V51.5447L39.6455 51.6591V51.7735L39.8743 52.0024V52.1168L39.9887 52.2312V52.3456L40.2176 52.5744V52.6889L40.4464 52.9177V53.0321L40.9041 53.4898V53.6042L41.5905 54.2907H41.705L42.277 54.8628H42.3915L42.6203 55.0916H42.7347L42.9635 55.3204H43.078L43.3068 55.5493H43.4212L43.5356 55.6637H43.65L43.7645 55.7781H43.8789L43.9933 55.8925H44.1077L44.2221 56.0069H44.451L44.5654 56.1213H44.6798L44.7942 56.2358H45.023L45.1375 56.3502H45.3663L45.4807 56.4646H45.824L45.9384 56.579H46.2816L46.396 56.6934H46.8537L46.9681 56.8078H47.9979L48.1123 56.9223H49.8285L49.9429 56.8078H50.7439L50.8583 56.6934H51.4304L51.5448 56.579H51.888L52.0024 56.4646H52.3457L52.4601 56.3502H52.6889L52.8034 56.2358H52.9178L53.0322 56.1213H53.261L53.3754 56.0069H53.4899L53.6043 55.8925H53.7187L53.8331 55.7781H53.9475L54.0619 55.6637H54.1764L54.2908 55.5493H54.4052L54.634 55.3204H54.7484L54.9773 55.0916H55.0917L55.4349 54.7483H55.5493L57.0368 53.2609V53.1465L57.38 52.8033L57.6088 53.0321V55.5493L57.6661 55.6637L57.7233 55.7781L57.8377 55.8925L57.9521 55.9497L58.0665 56.0069L58.1809 56.0641L58.2953 56.1213H64.9315L65.0459 56.0641L65.1603 56.0069L65.2747 55.9497L65.3892 55.8925L65.5036 55.7781L65.618 55.5493V30.4921L65.1603 30.0344L64.9887 29.9772L64.8171 29.92H57.8377L57.6661 29.9772L57.4944 30.0344L57.0368 30.4921V44.9085L56.9796 45.023L56.9223 45.595L56.8079 45.7095V45.9383L56.6935 46.0527V46.2815L56.5791 46.396V46.5104L56.4647 46.6248V46.7392L56.3503 46.8536V46.968L56.1214 47.1969V47.3113L55.8926 47.5401V47.6545L54.9773 48.5699H54.8629L54.7484 48.6843H54.634L54.4052 48.9131H54.2908L54.1764 49.0275H53.9475L53.8331 49.1419H53.6043L53.4899 49.2564H53.0322L52.9178 49.3708H51.5448L51.4304 49.2564H50.8583L50.7439 49.1419H50.2862L50.1718 49.0275H50.0574L49.9429 48.9131H49.7141L49.5997 48.7987H49.4853L49.3709 48.6843H49.2564L48.9132 48.341H48.7988L48.1123 47.6545V47.5401L47.8835 47.3113V47.1969L47.769 47.0825V46.968L47.6546 46.8536V46.7392L47.5402 46.6248V46.396L47.4258 46.2815V45.8239L47.3114 45.7095V28.0893L47.197 27.8605L47.0825 27.7461L46.9681 27.6317L46.8537 27.5744L46.7393 27.5172L46.6249 27.46L46.5105 27.4028H39.4166Z" fill="white"/>
<path d="M0.686498 18.3416L0.572082 18.3639L0.457666 18.456L0 18.9136V55.4125L0.0572082 55.5269L0.114416 55.6413L0.457666 55.9845L0.62929 56.0418L0.800915 56.099H8.12356L8.29519 56.0418L8.3524 56.0069L8.52402 55.9273L8.58123 55.8701L8.69565 55.7557L8.75285 55.6636L8.81006 55.5269L8.86727 55.4348L8.92448 55.298V32.0715L9.0389 31.9571L9.38214 32.3004V32.4148L9.61098 32.6436V32.758L9.83981 32.9869V33.1013L10.0686 33.3301V33.4445L10.2975 33.6734V33.7878L10.4119 33.9022V34.0166L10.6407 34.2454V34.3598L10.8696 34.5887V34.7031L11.0984 34.9319V35.0463L11.3272 35.2752V35.3896L11.4416 35.504V35.6184L11.6705 35.8473V35.9617L11.8993 36.1905V36.3049L12.1281 36.5338V36.6482L12.357 36.877V36.9914L12.4714 37.1058V37.2203L12.7002 37.4491V37.5635L12.9291 37.7923V37.9068L13.1579 38.1356V38.25L13.3867 38.4788V38.5933L13.6156 38.8221V38.9365L13.73 39.0509V39.1653L13.9588 39.3942V39.5086L14.1876 39.7374V39.8518L14.4165 40.0807V40.1951L14.5309 40.3095V40.4239L14.7597 40.6528V40.7672L14.9885 40.996V41.1104L15.2174 41.3392V41.4537L15.4462 41.6825V41.7969L15.675 42.0257V42.1402L15.7895 42.2546V42.369L16.0183 42.5978V42.7122L16.2471 42.9411V43.0555L16.476 43.2843V43.3987L16.7048 43.6276V43.742L16.9336 43.9708V44.0852L17.048 44.1997V44.3141L17.2769 44.5429V44.6573L17.5057 44.8862V45.0006L17.7345 45.2294V45.3438L17.9634 45.5727V45.6871L18.0778 45.8015V45.9159L18.3066 46.1447V46.2592L18.5355 46.488V46.6024L18.7643 46.8312V46.9457L18.8787 47.0601V47.1745L19.1075 47.4033V47.5177L19.3364 47.7466V47.861L19.5652 48.0898V48.2042L19.794 48.4331V48.5475L19.9085 48.6619V48.7763L20.1373 49.0051V49.1196L20.3661 49.3484V49.4628L20.595 49.6916V49.8061L20.8238 50.0349V50.1493L21.0526 50.3781V50.4926L21.2815 50.7214V50.8358L21.3959 50.9502V51.0646L21.6247 51.2935V51.4079L21.8535 51.6367V51.7511L22.0824 51.98V52.0944L22.3112 52.3232V52.4376L22.4256 52.5521V52.6665L22.6544 52.8953V53.0097L22.8833 53.2386V53.353L22.9977 53.4674V53.5818L23.2265 53.8106V53.9251L23.4554 54.1539V54.2683L23.6842 54.4971V54.6115L23.913 54.8404V54.9548L24.1419 55.1836V55.298L24.5995 55.7557H24.7139L24.8284 55.8701H24.9428L25.0572 55.9845H25.286L25.4004 56.099H33.9817L34.0961 56.0641L34.2105 56.0069L34.3249 55.9497L34.4393 55.8701L34.5538 55.7557L34.611 55.6636L34.6682 55.5269L34.7254 55.3204L34.7826 55.0692V19.3713L34.7254 19.222L34.6682 18.9136L34.611 18.7643L34.5538 18.7071L34.4393 18.5927L34.3249 18.5355L34.2105 18.456L34.1533 18.4211L33.9817 18.3416H26.5446L26.373 18.4211L26.3158 18.456L26.1441 18.5355L26.0869 18.5704L25.9725 18.6848L25.9153 18.7643L25.8581 18.9136L25.8009 19.1076L25.7437 19.2569V42.0257L25.6293 42.1402L25.4004 41.9113V41.7969L25.1716 41.5681V41.4537L24.9428 41.2248V41.1104L24.7139 40.8816V40.7672L24.5995 40.6528V40.5383L24.3707 40.3095V40.1951L24.1419 39.9663V39.8518L23.913 39.623V39.5086L23.6842 39.2798V39.1653L23.4554 38.9365V38.8221L23.3409 38.7077V38.5933L23.1121 38.3644V38.25L22.8833 38.0212V37.9068L22.6544 37.6779V37.5635L22.4256 37.3347V37.2203L22.1968 36.9914V36.877L22.0824 36.7626V36.6482L21.8535 36.4193V36.3049L21.6247 36.0761V35.9617L21.3959 35.7328V35.6184L21.167 35.3896V35.2752L20.9382 35.0463V34.9319L20.8238 34.8175V34.7031L20.595 34.4743V34.3598L20.3661 34.131V34.0166L20.1373 33.7878V33.6734L19.9085 33.4445V33.3301L19.6796 33.1013V32.9869L19.4508 32.758V32.6436L19.222 32.4148V32.3004L18.9931 32.0715V31.9571L18.8787 31.8427V31.7283L18.6499 31.4994V31.385L18.421 31.1562V31.0418L18.1922 30.8129V30.6985L17.9634 30.4697V30.3553L17.7345 30.1264V30.012L17.6201 29.8976V29.7832L17.3913 29.5544V29.4399L17.1625 29.2111V29.0967L16.9336 28.8679V28.7534L16.8192 28.639V28.5246L16.5904 28.2958V28.1814L16.3615 27.9525V27.8381L16.1327 27.6093V27.4949L15.9039 27.266V27.1516L15.675 26.9228V26.8084L15.4462 26.5795V26.4651L15.3318 26.3507V26.2363L15.103 26.0075V25.893L14.8741 25.6642V25.5498L14.6453 25.321V25.2065L14.4165 24.9777V24.8633L14.1876 24.6345V24.52L14.0732 24.4056V24.2912L13.8444 24.0624V23.948L13.6156 23.7191V23.6047L13.3867 23.3759V23.2615L13.1579 23.0326V22.9182L12.9291 22.6894V22.575L12.7002 22.3461V22.2317L12.5858 22.1173V22.0029L12.357 21.774V21.6596L12.1281 21.4308V21.3164L11.8993 21.0875V20.9731L11.7849 20.8587V20.7443L11.5561 20.5155V20.401L11.3272 20.1722V20.0578L11.0984 19.829V19.7146L10.8696 19.4857V19.3713L10.6407 19.1425V19.0281L10.2975 18.6848H10.1831L10.0686 18.5704H9.95423L9.83981 18.456L9.66819 18.4211L9.49656 18.3416H0.686498Z" fill="white"/>
<path d="M57.3798 0L57.2082 0.0879699L57.151 0.114416L56.9222 0.343249L56.865 0.431219L56.8078 0.572082V8.92448L56.6934 9.0389H48.341L48.1693 9.0961L47.9977 9.15331L47.6545 9.49656L47.5972 9.61098L47.54 9.72539V17.5057L47.6545 17.7345L47.9977 17.9634L48.1693 18.0206L48.341 18.0778H48.913H49.0275H49.1419H49.4851H49.5995H49.714H50.5149H50.6293H50.7437H50.8581H50.9725H51.0869H53.7185H53.8329H53.9474H56.4645L56.5789 18.135L56.6934 18.1922L56.8078 18.3066V26.8879L57.2654 27.3455L57.4371 27.4335L57.6087 27.4599H65.2746L65.389 27.4335L65.5034 27.3455L65.8467 27.0023L65.9039 26.9186L65.9611 26.7734V18.3066L66.0755 18.1922L66.1899 18.135L66.3043 18.0778H67.1052H67.2197H67.3341H68.2494H68.3638H68.4782H74.5423L75 17.6201V9.61098L74.5423 9.15331L74.3707 9.0961L74.1991 9.0389H66.0755L65.9611 8.92448V0.686498L65.9039 0.514874L65.8467 0.457666L65.7322 0.343249L65.675 0.286041L65.6178 0.228833L65.389 0H57.3798Z" fill="#A78BFA"/>
</svg>
